<svg width="69" height="69" viewBox="0 0 69 69" fill="none" xmlns="http://www.w3.org/2000/svg">
<path d="M52.7086 30.6665C52.7086 31.4811 52.6701 32.2765 52.5936 33.0718V33.072C51.5377 33.3157 50.5957 33.9096 49.9205 34.7571C49.2453 35.6045 48.877 36.6555 48.8751 37.739C48.8731 36.4688 48.3675 35.2512 47.4693 34.3532C46.5714 33.455 45.3537 32.9494 44.0836 32.9474H34.5C33.2299 32.9494 32.0122 33.455 31.114 34.3532C30.2161 35.2512 29.7105 36.4688 29.7084 37.739V47.3225C29.7089 48.5931 30.2138 49.8116 31.1122 50.7103C32.0109 51.6087 33.2294 52.1136 34.5 52.1141H36.4166C35.783 52.9676 34.8825 53.5848 33.8579 53.8678C32.9203 54.1219 32.0691 54.6252 31.395 55.3246C30.2019 55.4983 28.9976 55.5847 27.7916 55.5834H3.83367C3.6441 55.5841 3.45858 55.5277 3.30135 55.4219C3.14412 55.3159 3.02238 55.1652 2.95186 54.9891C2.87886 54.8146 2.85887 54.6223 2.89481 54.4365C2.93052 54.2506 3.02037 54.0794 3.15311 53.9447L9.50686 47.5909C5.81852 43.6059 3.53318 38.5249 2.99786 33.1216C2.46284 27.7182 3.70764 22.2875 6.54285 17.6564C9.37812 13.0254 13.6481 9.44713 18.7041 7.46683C23.7601 5.48624 29.3244 5.21127 34.5511 6.68431C39.7776 8.15706 44.3796 11.2971 47.6576 15.6261C50.9352 19.9553 52.7089 25.2367 52.7089 30.6664L52.7086 30.6665Z" fill="white"/>
<path d="M44.0835 34.8668H34.5C33.7377 34.8677 33.007 35.1709 32.468 35.7098C31.9289 36.2488 31.6259 36.9797 31.625 37.7418V47.3253C31.6259 48.0877 31.9289 48.8183 32.468 49.3574C33.007 49.8965 33.7377 50.1995 34.5 50.2003H38.001C38.3191 50.199 38.6176 50.354 38.7995 50.615C38.9731 50.8519 39.0199 51.1588 38.9249 51.4366C38.2027 53.5255 36.4982 55.1245 34.3675 55.7118C33.4572 55.9892 32.6809 56.5925 32.187 57.4061C31.6931 58.2196 31.5163 59.1868 31.6902 60.1225C31.864 61.0582 32.3766 61.8971 33.1299 62.4791C34.0369 63.185 35.223 63.4236 36.3324 63.1228C39.3812 62.2955 42.0732 60.4884 43.9937 57.9799C45.9139 55.4715 46.9556 52.4011 46.9585 49.2422V37.7422C46.9576 36.9801 46.6544 36.2492 46.1155 35.7102C45.5765 35.1713 44.8456 34.8681 44.0835 34.8672L44.0835 34.8668Z" fill="white"/>
<path d="M63.25 34.8668H53.6665C52.9044 34.8677 52.1735 35.1709 51.6345 35.7098C51.0956 36.2488 50.7924 36.9797 50.7915 37.7418V47.3253C50.7924 48.0877 51.0956 48.8183 51.6345 49.3574C52.1735 49.8965 52.9044 50.1995 53.6665 50.2003H57.1677C57.4858 50.199 57.7841 50.354 57.966 50.615C58.1396 50.8519 58.1866 51.1588 58.0913 51.4366C57.3694 53.5255 55.6644 55.1247 53.5338 55.7118C52.6234 55.9894 51.8472 56.5925 51.3535 57.4063C50.8596 58.2198 50.6828 59.187 50.8569 60.1227C51.0307 61.0584 51.5433 61.8971 52.2964 62.4791C53.2036 63.185 54.3897 63.4236 55.4991 63.1228C58.5477 62.2955 61.2399 60.4884 63.1598 57.9799C65.0797 55.4715 66.1218 52.4011 66.1246 49.2422V37.7422C66.1237 36.9801 65.8207 36.2492 65.2817 35.7102C64.7426 35.1713 64.012 34.8681 63.2496 34.8672L63.25 34.8668Z" fill="white"/>
</svg>
