<?xml version="1.0" encoding="UTF-8"?>
<svg xmlns="http://www.w3.org/2000/svg" width="52" height="59" viewBox="0 0 52 59" fill="none">
  <path d="M44.4469 13.8483L39.6781 13.8124L39.6827 9.6186H39.6825C39.6828 9.43845 39.6366 9.26233 39.5496 9.11159L36.0411 3.04393C35.891 2.78408 35.6356 2.62775 35.3619 2.62775C35.088 2.62775 34.8327 2.78408 34.6826 3.04393L31.1739 9.11208C31.0867 9.26266 31.0405 9.43896 31.0407 9.61909L31.0321 13.7478L26.9139 13.7165V4.29268C26.9205 4.04819 26.8413 3.81062 26.6938 3.63237C26.5462 3.45395 26.3422 3.34947 26.1268 3.3416H18.205C17.9843 3.34697 17.7739 3.44896 17.6178 3.62623C17.4615 3.8035 17.3718 4.04222 17.3671 4.29268V11.2989C17.3671 11.3711 17.3417 11.446 17.3417 11.5238C17.3417 11.6016 17.3671 11.6767 17.3671 11.7487V13.6451L13.1014 13.6124V6.48868C13.092 6.23497 12.9979 5.9949 12.8381 5.81726C12.6784 5.63941 12.4652 5.53705 12.2414 5.53109H9.35463C7.54377 5.5238 5.80584 6.34023 4.52946 7.79792C3.33849 9.16731 2.63159 10.9849 2.54289 12.9058H2.53882V38.0271H2.54949C2.54119 38.1423 2.53882 38.2921 2.53882 38.4502V38.4636C2.53645 40.5167 3.25348 42.4866 4.53216 43.9393C5.81066 45.392 7.54586 46.2084 9.35516 46.2086H38.2888V55.4505C38.2824 55.6887 38.3621 55.9195 38.5096 56.0893C38.6568 56.2591 38.8591 56.353 39.069 56.3493H44.1927C45.5897 56.3516 46.9302 55.7234 47.9185 54.6029C48.9067 53.4827 49.4616 51.9621 49.4608 50.3771V19.6056C49.4608 16.431 47.21 13.8482 44.4467 13.8482L44.4469 13.8483ZM38.0384 29.5H32.6854L32.6668 10.4863H38.057L38.0384 29.5ZM38.0367 31.3437L38.0348 33.1631C38.0348 34.2467 37.5251 35.2479 36.6981 35.7895C35.871 36.3313 34.852 36.3311 34.0251 35.7891C33.198 35.2473 32.6887 34.2461 32.6889 33.1625L32.687 31.3438L38.0367 31.3437ZM35.3618 5.17725L37.3657 8.64271H33.358L35.3618 5.17725ZM25.289 5.1857V35.9532H18.9922V30.8832H19.8047C20.095 30.8832 20.3632 30.7074 20.5084 30.4222C20.6535 30.137 20.6535 29.7856 20.5084 29.5003C20.3632 29.2151 20.095 29.0394 19.8047 29.0394H18.9922V26.2738H19.8047C20.095 26.2738 20.3632 26.098 20.5084 25.8128C20.6535 25.5276 20.6535 25.1762 20.5084 24.891C20.3632 24.6058 20.095 24.43 19.8047 24.43H18.9922V21.6644H19.8047C20.095 21.6644 20.3632 21.4887 20.5084 21.2035C20.6535 20.9183 20.6535 20.5668 20.5084 20.2816C20.3632 19.9964 20.095 19.8206 19.8047 19.8206H18.9922V17.055H19.8047C20.095 17.055 20.3632 16.8793 20.5084 16.5941C20.6535 16.3089 20.6535 15.9574 20.5084 15.6722C20.3632 15.387 20.095 15.2113 19.8047 15.2113H18.9922V12.4456H19.8047C20.095 12.4456 20.3632 12.2699 20.5084 11.9847C20.6535 11.6995 20.6535 11.3481 20.5084 11.0628C20.3632 10.7776 20.095 10.6019 19.8047 10.6019H18.9922V5.1857H25.289ZM4.16401 13.3184C4.16063 11.75 4.70499 10.2441 5.67799 9.13014C6.651 8.01618 7.97332 7.38512 9.35556 7.37494H11.4765V30.7675H9.36163C7.28011 30.7675 5.38276 31.7765 4.1638 33.4497L4.16401 13.3184ZM9.35621 44.3651C7.97782 44.3651 6.65585 43.7433 5.68185 42.6366C4.70785 41.5298 4.1618 40.0291 4.16384 38.4651V38.4517C4.16739 36.8939 4.71786 35.402 5.69355 34.3058C6.66907 33.2097 7.98952 32.5999 9.3625 32.6112H12.2415H12.2413C12.4666 32.6009 12.6804 32.4947 12.8397 32.3135C12.9992 32.1324 13.0926 31.8901 13.1014 31.6343V15.4555L17.367 15.4881V15.9074C17.367 15.9796 17.3416 16.0545 17.3416 16.1323C17.3416 16.2101 17.367 16.2852 17.367 16.3572V20.5171C17.367 20.5893 17.3416 20.6642 17.3416 20.742C17.3416 20.8198 17.367 20.8949 17.367 20.9669V25.1269C17.367 25.1991 17.3416 25.274 17.3416 25.3518C17.3416 25.4295 17.367 25.5046 17.367 25.5767V29.7366C17.367 29.8088 17.3416 29.8837 17.3416 29.9615C17.3416 30.0393 17.367 30.1144 17.367 30.1864V36.905C17.3741 37.1493 17.4664 37.3804 17.6235 37.5476C17.7806 37.7147 17.9896 37.8044 18.2049 37.7969H26.1267C26.3368 37.8025 26.5399 37.7101 26.6885 37.5415C26.8371 37.3729 26.9186 37.1426 26.9138 36.9042V15.5605L31.0339 15.5914L31.0576 33.168C31.0576 34.9111 31.8772 36.5219 33.2078 37.3936C34.5383 38.2652 36.1775 38.2652 37.5081 37.3936C38.8386 36.5219 39.6582 34.9111 39.6582 33.168L39.6761 15.6563L44.4406 15.6922C46.3133 15.6922 47.8355 17.448 47.8355 19.606L47.8357 46.0468C46.8607 44.9642 45.5495 44.3602 44.1852 44.3654L9.35621 44.3651ZM47.8392 50.3659C47.8404 51.4639 47.4565 52.5176 46.7722 53.2943C46.0878 54.0707 45.1593 54.5065 44.1914 54.5056H39.914V46.2087H44.1842C45.1528 46.2114 46.0809 46.6495 46.7654 47.4269C47.4497 48.2045 47.8348 49.2582 47.8358 50.3571H47.8692L47.8392 50.3659Z" fill="white"></path>
</svg>
