<?xml version="1.0" encoding="UTF-8"?>
<svg xmlns="http://www.w3.org/2000/svg" width="56" height="63" viewBox="0 0 56 63" fill="none">
  <path d="M6.53097 4.22992L2.44474 11.3815C1.79379 12.5213 1.58981 13.8748 1.87163 15.192C2.15254 16.509 2.88042 17.6107 3.92095 18.2928L11.2639 23.1123C11.2752 23.1193 11.2867 23.1222 11.298 23.1281C11.3042 23.132 11.3077 23.139 11.3137 23.1419L13.0637 24.1262C13.3096 24.2651 13.6 24.2651 13.8468 24.1262L16.5637 22.5976L17.9225 25.6541C18.1053 26.0665 18.5184 26.2821 18.9174 26.168L21.7368 25.3756L23.1727 28.6064C23.3564 29.0188 23.7677 29.2374 24.1676 29.1203L27.0692 28.3043L28.477 30.6806C28.6739 31.0124 29.0274 31.1816 29.3764 31.1L33.2202 30.2348L34.7699 32.4845H6.99994C6.51685 32.4845 6.12494 32.9246 6.12494 33.4689V42.3282C6.12494 42.8725 6.51686 43.3126 6.99994 43.3126H17.5849L14.357 57.8399C14.2914 58.1342 14.3508 58.4453 14.5164 58.6836C14.6815 58.9227 14.9353 59.0625 15.2049 59.0625H20.4549C20.8565 59.0625 21.2064 58.7553 21.3036 58.3165L24.6381 43.3125H33.7713L37.1059 58.3165C37.204 58.7553 37.5531 59.0625 37.9548 59.0625H43.2048C43.4743 59.0625 43.7289 58.9227 43.8942 58.6836C44.0596 58.4453 44.1192 58.1334 44.0536 57.8399L40.8255 43.3126H50.7497C51.2328 43.3126 51.6247 42.8725 51.6247 42.3282V33.4689C51.6247 32.9246 51.2327 32.4845 50.7497 32.4845H47.3616L48.395 29.5106C48.5456 29.0775 48.4063 28.5843 48.0607 28.3294L20.0607 7.65749C20.0538 7.65257 20.045 7.65154 20.0379 7.64764C20.0317 7.64272 20.0282 7.63493 20.0213 7.63083L12.4165 2.64007V2.63905C10.3849 1.30728 7.80108 2.00537 6.53044 4.23006L6.53097 4.22992ZM19.7726 57.0922H16.327L19.3895 43.3109H22.8351L19.7726 57.0922ZM42.0849 57.0922H38.6392L35.5767 43.3109H39.0224L42.0849 57.0922ZM49.875 41.3422H7.87497V34.4515H49.875V41.3422ZM45.4825 32.4828H36.9835L34.271 28.5482C34.068 28.2539 33.7354 28.114 33.4083 28.186L29.6082 29.0404L28.1838 26.6364C27.9782 26.2898 27.6019 26.1235 27.2432 26.2279L24.4239 27.0204L22.9879 23.7896C22.8051 23.3771 22.3947 23.1616 21.993 23.2756L19.1737 24.0681L17.7377 20.8373C17.5215 20.3521 16.9975 20.156 16.5634 20.3972L13.4546 22.1455L12.9681 21.8719L19.8388 9.84887L46.5069 29.5385L45.4825 32.4828ZM18.3495 8.8116L11.4219 20.9354L4.80267 16.5923C4.17887 16.1817 3.74207 15.5214 3.57328 14.7308C3.40448 13.9394 3.52607 13.1273 3.91708 12.4441L8.00331 5.29362C8.5046 4.41546 9.34642 3.93414 10.2109 3.93414C10.6615 3.93414 11.1174 4.06498 11.534 4.33875L11.5342 4.33773L18.3495 8.8116Z" fill="white"></path>
  <path d="M8.30097 8.51182L6.74441 11.138C6.34282 11.8162 6.20881 12.6283 6.36725 13.4228C6.52657 14.2191 6.95604 14.8875 7.57731 15.3079L10.3791 17.1989C10.52 17.2945 10.6748 17.3396 10.8288 17.3396C11.1123 17.3396 11.3898 17.185 11.5576 16.9016L15.0576 10.9953C15.1907 10.771 15.2361 10.4962 15.1836 10.2334C15.1311 9.97054 14.9849 9.74413 14.7802 9.60549L11.8358 7.61811C10.6319 6.80577 9.0797 7.1977 8.30097 8.51182ZM10.9354 9.30609L13.0923 10.7619L10.5645 15.0282L8.47854 13.6207C8.27109 13.48 8.12763 13.2575 8.07513 12.9917C8.02263 12.726 8.06729 12.4563 8.20109 12.2309L9.75766 9.60471C9.92573 9.32027 10.203 9.16564 10.4858 9.16564C10.6389 9.16543 10.7938 9.21073 10.9354 9.30609Z" fill="white"></path>
  <path d="M45.5 59.0625H47.25V61.0312H45.5V59.0625Z" fill="white"></path>
  <path d="M34.125 59.0625H35.875V61.0312H34.125V59.0625Z" fill="white"></path>
  <path d="M30.625 57.0938H32.375V59.0625H30.625V57.0938Z" fill="white"></path>
  <path d="M27.125 59.0625H28.875V61.0312H27.125V59.0625Z" fill="white"></path>
  <path d="M49 57.0938H50.75V59.0625H49V57.0938Z" fill="white"></path>
  <path d="M52.5 59.0625H54.25V61.0312H52.5V59.0625Z" fill="white"></path>
  <path d="M49 53.1562H50.75V55.125H49V53.1562Z" fill="white"></path>
  <path d="M49 49.2188H50.75V51.1875H49V49.2188Z" fill="white"></path>
  <path d="M49 45.2812H50.75V47.25H49V45.2812Z" fill="white"></path>
  <path d="M30.625 53.1562H32.375V55.125H30.625V53.1562Z" fill="white"></path>
  <path d="M30.625 49.2188H32.375V51.1875H30.625V49.2188Z" fill="white"></path>
  <path d="M30.625 45.2812H32.375V47.25H30.625V45.2812Z" fill="white"></path>
</svg>
