<?xml version="1.0" encoding="UTF-8"?>
<svg xmlns="http://www.w3.org/2000/svg" width="56" height="63" viewBox="0 0 56 63" fill="none">
  <path d="M10.416 28.413C9.85599 28.413 9.01599 29.7989 9.01599 32.0671C9.01599 34.3351 9.85599 35.7212 10.416 35.7212C10.976 35.7212 11.816 34.3353 11.816 32.0671C11.816 29.7992 10.976 28.413 10.416 28.413Z" fill="white"></path>
  <path d="M14.56 45.612C14 45.612 13.16 46.9979 13.16 49.2661C13.16 51.5341 13.9441 52.92 14.56 52.92C15.176 52.92 15.96 51.5341 15.96 49.2659C15.96 46.9979 15.12 45.612 14.56 45.612Z" fill="white"></path>
  <path d="M1.12005 49.266C1.12005 54.81 3.36005 59.157 6.27205 59.157H49.728C52.6399 59.157 54.88 54.81 54.88 49.266C54.88 43.722 52.64 39.375 49.728 39.375H49.056C50.2248 37.1464 50.8074 34.5903 50.736 32.004C50.736 26.46 48.4959 22.113 45.584 22.113H34.944L34.4399 20.0971L34.8318 19.908V19.9078C36.9417 19.0229 38.6864 17.2919 39.7304 15.0473C40.7744 12.8029 41.0442 10.2035 40.488 7.74872L40.3199 7.05556C40.2308 6.72395 40.0243 6.44835 39.7488 6.29326C39.4732 6.13843 39.1533 6.11792 38.864 6.23666L38.248 6.4887C36.9094 7.03854 35.7051 7.93534 34.7322 9.10651C33.7593 10.2777 33.0453 11.6901 32.648 13.2296L32.2 11.4655L31.92 10.6466C31.1425 8.23428 29.5905 6.23681 27.5694 5.04747C25.5483 3.85803 23.2048 3.56314 21.0001 4.22039L20.3282 4.40947C20.0332 4.50976 19.7883 4.74211 19.6505 5.05197C19.5128 5.36204 19.4946 5.72197 19.6001 6.04742L19.8242 6.74037C20.4573 8.72775 21.6198 10.4473 23.1528 11.6649C24.6861 12.8824 26.5156 13.5387 28.3921 13.5445C29.0332 13.5398 29.6718 13.4553 30.2961 13.2924L32.5921 22.1754H10.4161C7.50418 22.1754 5.26409 26.5225 5.26409 32.0664V32.0666C5.19263 34.6529 5.77523 37.209 6.94409 39.4376H6.27199C3.36009 39.3747 1.12 43.7217 1.12 49.2656L1.12005 49.266ZM38.472 9.07201C38.748 10.7532 38.518 12.4899 37.8181 14.0074C37.1183 15.525 35.9889 16.7366 34.6082 17.4509C34.3322 15.7699 34.5622 14.033 35.2621 12.5155C35.9619 10.9979 37.0914 9.78632 38.472 9.07201ZM22.12 6.55201C23.6145 6.24152 25.1581 6.50033 26.5071 7.28764C27.856 8.07495 28.9332 9.3458 29.5681 10.8991C28.0672 11.2046 26.5186 10.9366 25.1687 10.1374C23.819 9.33818 22.7459 8.05377 22.1201 6.48906L22.12 6.55201ZM3.36005 49.266C3.36005 45.0451 4.87195 41.895 6.27195 41.895C7.67195 41.895 9.18386 45.045 9.18386 49.266C9.18386 53.4869 7.67195 56.637 6.27195 56.637C4.87195 56.6372 3.36005 53.4872 3.36005 49.266ZM10.416 41.895H11.0881C10.8282 42.3558 10.6034 42.8406 10.416 43.3441C10.2287 42.8406 10.0039 42.3559 9.74414 41.895H10.416ZM10.416 55.125C10.6034 55.6285 10.8282 56.1131 11.0881 56.5741H9.74409C10.0011 56.1334 10.2259 55.6697 10.416 55.188L10.416 55.125ZM11.648 49.203C11.648 44.9821 13.1599 41.832 14.5599 41.832C15.9599 41.832 17.4718 44.982 17.4718 49.203C17.4719 53.4241 15.904 56.637 14.56 56.637C13.216 56.637 11.6481 53.487 11.6481 49.266L11.648 49.203ZM52.6399 49.203C52.6399 53.4239 51.128 56.574 49.728 56.574L18.032 56.5742C19.2009 54.3454 19.7835 51.7895 19.712 49.2032C19.7835 46.617 19.2009 44.0609 18.032 41.8322H49.728C51.128 41.8952 52.6399 45.0452 52.6399 49.2662V49.203ZM48.4961 32.067C48.4961 36.2879 46.9842 39.438 45.5842 39.438H13.8882C15.0569 37.2094 15.6394 34.6533 15.5682 32.067C15.6395 29.4805 15.0569 26.9247 13.8882 24.696H45.5842C46.9842 24.696 48.4961 27.846 48.4961 32.067ZM7.50409 32.067C7.50409 27.8461 9.016 24.696 10.416 24.696C11.816 24.696 13.3279 27.846 13.3279 32.067C13.3281 36.2879 11.76 39.375 10.416 39.375C9.072 39.375 7.50409 36.288 7.50409 32.067Z" fill="white"></path>
  <path d="M6.27207 45.612C5.71207 45.612 4.87207 46.9979 4.87207 49.2661C4.87207 51.5341 5.65612 52.92 6.27207 52.92C6.88802 52.92 7.67207 51.5341 7.67207 49.2659C7.67207 46.9979 6.83207 45.612 6.27207 45.612Z" fill="white"></path>
</svg>
