<svg id="Layer_1" data-name="Layer 1" xmlns="http://www.w3.org/2000/svg" viewBox="0 0 1062.54 245"><path d="M493.42,56.35l-49.51,29.4a2.75,2.75,0,0,0-1,1A2.81,2.81,0,0,0,444,90.61l50.18,28.71a4.54,4.54,0,0,0,3.56,0l49.64-29.67a2.78,2.78,0,0,0,1-1.06,2.81,2.81,0,0,0-1.06-3.8L497.27,56.32A5,5,0,0,0,493.42,56.35Zm17.91,27.72.09.05,0,.06,4.17,2.32.38.22a1.12,1.12,0,0,1,.42,1.52,1.17,1.17,0,0,1-.41.42l-15.71,9.15h0l-2.33,1.36-.05,0-.8.46a4.77,4.77,0,0,1-1.39.48,3.72,3.72,0,0,1-1.76-.46l-.23-.12-.27-.17c-.24-.15-.49-.29-.74-.42l-1.15-.62L474.76,89a1.11,1.11,0,0,1-.43-1.52,1,1,0,0,1,.4-.41L493.25,76h.05l.15-.11.57-.34a2.92,2.92,0,0,1,2.44,0l.72.42.13.1,14.09,8.13Z"/><path d="M492.36,123.32l-51-29.08a2.72,2.72,0,0,0-1.36-.36,2.75,2.75,0,0,0-2.75,2.75v58.18a2.74,2.74,0,0,0,1.32,2.35l10.91,6.63a2.72,2.72,0,0,0,1.43.4,2.75,2.75,0,0,0,2.75-2.69h0l.06-3.73v-9.22h0s-.26-3.06,3.19-.92a4.82,4.82,0,0,0,.78.4l10,5.67h0c.47.31,21.68,12.4,21.68,12.4a2.71,2.71,0,0,0,1.35.36,2.76,2.76,0,0,0,2.76-2.75V153.6a2.76,2.76,0,0,0-1.4-2.39l-13.55-7.67h0l-22.49-12.85,0,0-.25-.08-.94-.54a3.49,3.49,0,0,1-1.19-2.57v-.4a2.38,2.38,0,0,1,0-.35l0-6.25-.07.07v-.07h.07s-.26-3.06,3.19-.92a5.05,5.05,0,0,0,.72.38l5.49,3.16,4.22,2.45,0,0c.18.12,3.44,2,3.44,2l10.54,6.05,1,.55h0l5.89,3.38,1.21.7h0a2.74,2.74,0,0,0,4.12-2.34l.18-10.13A2.75,2.75,0,0,0,492.36,123.32Z"/><path d="M550.79,93.33h0a2.7,2.7,0,0,0-1.4.39l-49.75,29a5,5,0,0,0-1.89,3.35l.56,57.6a2.79,2.79,0,0,0,4.23,2.37l50.06-29a4.48,4.48,0,0,0,1.72-3.11l-.72-57.81A2.81,2.81,0,0,0,550.79,93.33Zm1,61.21a2.57,2.57,0,0,1-.38.53l-50,28.93h0a.55.55,0,0,1-.23.07.48.48,0,0,1-.47-.46l-.56-57.55a2.63,2.63,0,0,1,.31-.73,2.5,2.5,0,0,1,.46-.64l49.71-29a.46.46,0,0,1,.22-.06h0a.47.47,0,0,1,.33.14.42.42,0,0,1,.14.32v0h0l.72,57.75A2.83,2.83,0,0,1,551.74,154.54Z"/><path d="M538.1,115.2h0a4,4,0,0,0-2,.55l-21.92,12.69-.14.08h0l-.1.06-.67.39-.11.06-.1.08a6.15,6.15,0,0,0-2.58,4.44l0,.16V135l0,.17v.08l.11,7.35-.05-.09.16,11.48v.12l0,2.28h0v3.3h0v.53a4.07,4.07,0,0,0,4.06,4,4,4,0,0,0,2.07-.57l18.36-10.9,2.71-1.61.07,0,.94-.56.07,0h0l1.8-1.56c.07-.09.14-.17.2-.26l.1-.13.08-.14a7,7,0,0,0,.91-3.38v-.45c0-.14,0-.29,0-.43s0-.55,0-.82l0-1.53V119.27a4.08,4.08,0,0,0-4.07-4.07Zm1.3,29.12c0,.11,0,.24,0,.37V145a4.47,4.47,0,0,1-.54,2.07,5.59,5.59,0,0,1-1.28,1.15l-.93.55-.07,0-2.73,1.61h0l-18.35,10.91a1.38,1.38,0,0,1-.67.18,1.3,1.3,0,0,1-1.31-1.29V154.1l-.07,0V154l.07.14-.1-6.33,26-15.36v9.38l0,1.53C539.38,143.65,539.39,144,539.4,144.32Z"/><path d="M495.36,51.81a4.75,4.75,0,0,1,2.31.61l56.38,32a6.07,6.07,0,0,1,3.06,5.2l.76,65.65a4.68,4.68,0,0,1-2.35,4.11L498.77,192a7.85,7.85,0,0,1-3.87,1.2,5.74,5.74,0,0,1-3-.86l-55.82-33.12a4.7,4.7,0,0,1-2.3-4l-.14-63c0-3.64.79-4.69,3.93-6.55L493,52.47a4.62,4.62,0,0,1,2.38-.66m0-5.23h0A9.88,9.88,0,0,0,490.31,48h0L434.93,81.12A13.5,13.5,0,0,0,430,85.46a12.25,12.25,0,0,0-1.58,6.72l.15,63a9.91,9.91,0,0,0,4.86,8.52l55.82,33.12a11,11,0,0,0,5.63,1.58,12.89,12.89,0,0,0,6.48-1.89l56.75-32.63a9.92,9.92,0,0,0,5-8.71l-.76-65.65a11.32,11.32,0,0,0-5.72-9.69l-56.37-32a9.91,9.91,0,0,0-4.9-1.29Z"/><polygon points="103.44 167.5 112.77 167.5 112.65 125.15 167.86 125.15 167.86 116.57 112.65 116.57 112.65 86.07 170.76 86.07 170.76 77.5 103.32 77.5 103.44 167.5"/><path d="M228.86,169.77c25.59,0,48.91-15.5,48.91-47.27s-23.32-47.27-48.91-47.27S180,90.73,180,122.5,203.27,169.77,228.86,169.77Zm0-86c19.79,0,38.83,11.47,38.83,38.7s-19,38.7-38.83,38.7S190,149.73,190,122.5,209.07,83.8,228.86,83.8Z"/><path d="M290.49,122.5c0,31.77,23.32,47.27,48.91,47.27s48.91-15.5,48.91-47.27S365,75.23,339.4,75.23,290.49,90.73,290.49,122.5Zm87.74,0c0,27.23-19,38.7-38.83,38.7s-38.83-11.47-38.83-38.7,19-38.7,38.83-38.7S378.23,95.27,378.23,122.5Z"/><path d="M710.48,98.55c0-9-4-23.29-26.87-23.29H605.4v94.48H681c29.11,0,34.27-17.07,34.27-28.18,0-13.37-6.35-21.44-16.41-23.69v-.27C705.58,115.09,710.48,107.41,710.48,98.55ZM636.9,95.64h31.36c6.75,0,9.66,3.7,9.66,7.94s-2.91,8.07-9.66,8.07H636.9Zm33.88,53.72H636.9V130.18h33.88c6.75,0,11.11,3.17,11.11,9.39S677.53,149.36,670.78,149.36Z"/><path d="M801.1,154.39l5.69,15.35h33.75L799.91,75.26H761.4l-41,94.48h33.74l5.7-15.35ZM780.33,99.08h.26l13.1,35.73H767.23Z"/><path d="M957,101.59c0-15.75-8.33-26.33-31.62-26.33h-75.7v94.48h31.5V138.25H910c7.94,0,12.83,2.64,12.83,17.47,0,4.36.13,9.92,1.85,14h34.54c-4-4.63-4.5-10.85-6-29.37-.93-10.19-5.43-15-11.38-16.94v-.27C950.36,121,957,114.29,957,101.59Zm-45.52,15.48h-30.3V96.43h30.3c7.81,0,11.78,4,11.78,10.19C923.23,113.11,919.26,117.07,911.45,117.07Z"/></svg>