<?xml version="1.0" encoding="UTF-8"?><svg id="Layer_2" xmlns="http://www.w3.org/2000/svg" viewBox="0 0 1575 290"><polygon points="150.34 198.73 159.67 198.73 159.54 156.37 214.76 156.37 214.76 147.79 159.54 147.79 159.54 117.29 217.66 117.29 217.66 108.72 150.21 108.72 150.34 198.73"/><path d="M275.76,200.99c25.59,0,48.91-15.5,48.91-47.27s-23.32-47.27-48.91-47.27-48.91,15.5-48.91,47.27,23.32,47.27,48.91,47.27ZM275.76,115.02c19.79,0,38.83,11.47,38.83,38.7s-19.04,38.7-38.83,38.7-38.83-11.47-38.83-38.7,19.04-38.7,38.83-38.7Z"/><path d="M337.39,153.72c0,31.77,23.32,47.27,48.91,47.27s48.91-15.5,48.91-47.27-23.32-47.27-48.91-47.27-48.91,15.5-48.91,47.27ZM425.13,153.72c0,27.23-19.04,38.7-38.83,38.7s-38.83-11.47-38.83-38.7,19.04-38.7,38.83-38.7,38.83,11.47,38.83,38.7Z"/><path d="M738.76,141c-2.39-13.67-13.67-20.44-27.08-20.44-24.43,0-29.61,19.12-29.61,31.99s5.18,31.99,29.61,31.99c12.35,0,24.56-6.11,27.08-20.98h28.01c-3.19,27.61-25.75,39.03-56.02,39.03-34.52,0-56.02-14.87-56.02-50.05s21.51-50.05,56.02-50.05c22.97,0,51.91,5.84,55.76,38.5h-27.75Z"/><path d="M832.76,102.5c50.98,0,58.94,30.27,58.94,50.05s-7.97,50.05-58.94,50.05-58.94-30.27-58.94-50.05,7.97-50.05,58.94-50.05ZM832.76,184.54c23.37,0,31.6-17.26,31.6-31.99s-8.23-31.99-31.6-31.99-31.6,17.26-31.6,31.99,8.23,31.99,31.6,31.99Z"/><path d="M984.36,105.15h24.96v94.79h-28.01l-51.64-66.11h-.27v66.11h-24.96v-94.79h29.87l49.78,66.11h.27v-66.11Z"/><path d="M1015.43,105.15h28.28l27.48,72.22,27.48-72.22h28.28l-42.08,94.79h-27.35l-42.08-94.79h-.01Z"/><path d="M1133.05,105.15h88.55v18.06h-62.79v19.65h59.61v17.26h-59.61v21.77h63.33v18.06h-89.08v-94.79h-.01Z"/><path d="M1236.33,105.15h68.9c26.15,0,30.67,16.06,30.67,25.75,0,11.68-4.65,18.99-15.4,22.84v.27c11.15,1.73,13.01,16.06,13.01,25.36,0,4.65.27,15.93,4.91,20.58h-28.14c-2.39-4.11-2.52-8.36-2.52-18.19,0-13.28-5.71-16.59-13.67-16.59h-31.99v34.78h-25.75v-94.79h-.02ZM1262.08,147.11h34.12c5.71,0,12.35-3.19,12.35-12.08,0-9.43-7.43-11.82-13.67-11.82h-32.79v23.9h0Z"/><path d="M1375.46,123.21h-35.18v-18.06h96.12v18.06h-35.18v76.73h-25.76v-76.73h0Z"/><path d="M559.03,206.82c-.37,0-.75-.05-1.12-.16-2.17-.62-3.43-2.88-2.81-5.05l8.36-29.27c.38-1.33,1.41-2.38,2.74-2.79,1.33-.4,2.77-.11,3.83.79l5.35,4.51,5.44-20.76c.57-2.18,2.8-3.49,4.99-2.92,2.18.57,3.49,2.81,2.92,4.99l-7.08,27.02c-.36,1.36-1.38,2.44-2.72,2.86-1.34.42-2.8.13-3.87-.77l-5.47-4.61-6.63,23.2c-.51,1.79-2.15,2.96-3.93,2.96Z"/><polygon points="572.54 154.16 593.45 142.26 593.45 169.92 572.54 154.16"/><path d="M593.45,173.46c-.76,0-1.51-.24-2.13-.71l-20.91-15.76c-.95-.72-1.48-1.87-1.4-3.06.08-1.19.75-2.26,1.78-2.85l20.91-11.9c1.1-.62,2.44-.62,3.53.02,1.09.63,1.76,1.8,1.76,3.06v27.67c0,1.34-.76,2.57-1.96,3.17-.5.25-1.04.37-1.58.37ZM578.98,154.57l10.94,8.24v-14.47l-10.94,6.23Z"/><path d="M548.52,150.23l49.04-29.31c.46-.27.8-.63,1.03-1.04.7-1.25.35-2.96-1.04-3.76l-49.47-28.13c-.87-.5-2.94-.49-3.8.03l-48.91,29.04c-.44.26-.78.62-1,1.03-.7,1.26-.34,2.99,1.08,3.77l49.57,28.37c.85.47,2.67.49,3.51,0ZM544.76,130.83l-.22-.12c-.1-.06-.19-.11-.27-.16-.24-.15-.48-.29-.73-.42l-1.14-.6-16.56-9.21c-.56-.31-.71-1-.43-1.5.09-.16.22-.3.4-.41l18.3-10.93h.05s.1-.08.15-.12l.56-.33c.96-.46,1.82-.29,2.41-.04l.71.41c.09.06.13.11.13.11l13.92,8.03-.07-.11.09.05-.02.06,4.12,2.3.37.21c.55.32.69,1,.42,1.5-.09.16-.23.31-.41.42l-15.52,9.04h0s-2.3,1.33-2.3,1.33c0,0-.02.01-.05.04l-.79.46c-.4.2-.9.41-1.37.47-.68.01-1.29-.22-1.74-.45Z"/><path d="M543.23,154.18l-50.4-28.73c-.43-.25-.89-.36-1.34-.36-1.42,0-2.72,1.14-2.72,2.72v57.48c0,.95.5,1.83,1.31,2.32l10.78,6.54c.45.27.93.4,1.4.4,1.4,0,2.68-1.1,2.72-2.65h0s.06-3.69.06-3.69v-9.11h.03s-.26-3.02,3.15-.91c.27.17.52.3.77.39l9.84,5.6.03.02c.47.3,21.42,12.25,21.42,12.25.43.25.89.36,1.34.36,1.42,0,2.72-1.14,2.72-2.72v-10c0-.98-.53-1.88-1.38-2.36l-13.38-7.58s0,0,0,0l-22.22-12.7.03-.04c-.08-.03-.17-.06-.25-.09l-.93-.53c-.92-.75-1.14-1.82-1.17-2.53v-.39c0-.22.03-.35.03-.35l.03-6.17-.06.07v-.07h.06s-.26-3.02,3.15-.91c.25.15.48.27.71.37l5.42,3.13,4.17,2.42s.02.01.03.02c.18.12,3.4,2,3.4,2l10.42,5.97.94.54s0,0,0,0l5.82,3.34,1.19.69h0s0,0,0,0c.44.25.9.36,1.35.36,1.4,0,2.69-1.11,2.72-2.67l.18-10.01c.02-.99-.51-1.92-1.37-2.41Z"/><path d="M546.26,83.67c.79,0,1.57.2,2.28.6l55.69,31.59c1.85,1.05,3.01,3.01,3.03,5.14l.75,64.84c.02,1.68-.87,3.23-2.32,4.06l-56.07,32.23c-1.29.74-2.55,1.18-3.82,1.18-.97,0-1.94-.26-2.92-.84l-55.15-32.72c-1.4-.83-2.26-2.34-2.27-3.97l-.14-62.25c0-3.6.79-4.64,3.88-6.47l54.7-32.76c.73-.43,1.54-.64,2.35-.64M546.26,78.5h0c-1.75,0-3.48.47-4.99,1.36h-.01s-.01.02-.01.02l-54.69,32.75c-1.67.99-3.57,2.22-4.85,4.28-1.38,2.22-1.56,4.6-1.56,6.64l.14,62.26c0,1.69.45,3.37,1.29,4.84s2.06,2.71,3.51,3.57l55.15,32.72c1.75,1.04,3.62,1.56,5.56,1.56,2.12,0,4.21-.61,6.39-1.87l56.07-32.23c3.07-1.77,4.96-5.07,4.92-8.61l-.75-64.84c-.05-3.96-2.21-7.63-5.65-9.58l-55.69-31.59c-1.47-.83-3.14-1.28-4.84-1.28h0Z"/><path d="M601.08,124.62h0c-.46,0-.94.12-1.38.38l-49.15,28.64c-.87.5-1.88,2.3-1.87,3.31l.55,56.9c.02,1.6,1.34,2.74,2.78,2.74.47,0,.96-.12,1.41-.39l49.44-28.62c.84-.5,1.7-2.09,1.7-3.07l-.71-57.11c0-1.62-1.33-2.78-2.77-2.78ZM602.01,185.08c-.16.29-.31.47-.37.52l-49.38,28.58h-.01s-.01.01-.01.01c-.08.05-.15.07-.23.07-.15,0-.45-.11-.46-.45l-.55-56.85c.02-.09.1-.36.3-.72.2-.36.39-.57.46-.63l49.1-28.62c.08-.04.15-.06.22-.06h0c.12,0,.24.05.33.14.12.11.13.24.13.32h0s0,.03,0,.03l.71,57.05c-.01.08-.08.3-.24.61Z"/></svg>