<svg id="Layer_1" data-name="Layer 1" xmlns="http://www.w3.org/2000/svg" viewBox="0 0 1456 245"><path d="M566.31,88.41a2.82,2.82,0,0,0-1.06-3.81L515.18,56.13a5,5,0,0,0-3.85,0l-49.51,29.4a2.79,2.79,0,0,0,.08,4.86l50.17,28.72a4.49,4.49,0,0,0,3.56,0l49.64-29.67A2.83,2.83,0,0,0,566.31,88.41Zm-32-.37a1.21,1.21,0,0,1-.42.42l-15.71,9.15h0L515.83,99l-.05,0-.8.46a4.41,4.41,0,0,1-1.39.48,3.63,3.63,0,0,1-1.76-.45l-.23-.13-.27-.16c-.24-.15-.49-.3-.74-.43l-1.15-.61-16.77-9.32a1.11,1.11,0,0,1-.43-1.52,1.07,1.07,0,0,1,.4-.42l18.52-11.07h0l.15-.12.57-.33a2.84,2.84,0,0,1,2.44,0l.72.41.13.11L529.31,84l-.07-.11.09,0,0,.06,4.18,2.33.37.21A1.12,1.12,0,0,1,534.29,88Z"/><path d="M474.87,119.34a6.18,6.18,0,0,0,.72.37l5.49,3.16,4.22,2.45,0,0c.18.12,3.44,2,3.44,2l10.54,6,.95.55h0l5.89,3.38,1.21.69h0a2.74,2.74,0,0,0,4.11-2.33l.18-10.13a2.73,2.73,0,0,0-1.39-2.44l-51-29.08a2.74,2.74,0,0,0-4.11,2.39v58.18a2.75,2.75,0,0,0,1.32,2.35l10.92,6.62a2.68,2.68,0,0,0,1.42.41,2.76,2.76,0,0,0,2.75-2.69h0l.07-3.73v-9.23h0s-.26-3.06,3.19-.92a4.82,4.82,0,0,0,.78.4l10,5.67,0,0c.47.3,21.68,12.4,21.68,12.4a2.83,2.83,0,0,0,1.36.36,2.75,2.75,0,0,0,2.75-2.75V153.4A2.76,2.76,0,0,0,510,151l-13.55-7.67h0L474,130.48l0,0-.25-.09-.94-.54a3.44,3.44,0,0,1-1.18-2.57v-.39c0-.22,0-.35,0-.35l0-6.25-.06.07v-.08h.06S471.42,117.2,474.87,119.34Z"/><path d="M547.35,136.17a3.31,3.31,0,1,0-3.31-3.31A3.31,3.31,0,0,0,547.35,136.17Z"/><path d="M519,186.63a2.82,2.82,0,0,0,1.43-.4l50-29a4.5,4.5,0,0,0,1.72-3.11l-.72-57.81a2.81,2.81,0,0,0-2.81-2.81h0a2.81,2.81,0,0,0-1.4.38l-49.75,29a5,5,0,0,0-1.89,3.34l.56,57.6A2.81,2.81,0,0,0,519,186.63Zm-.72-61.09a2.88,2.88,0,0,1,.46-.63l49.71-29a.47.47,0,0,1,.22-.07h0A.57.57,0,0,1,569,96a.47.47,0,0,1,.13.33h0v0l.72,57.75a2.23,2.23,0,0,1-.24.61,2,2,0,0,1-.38.53l-50,28.94h0a.41.41,0,0,1-.23.07.47.47,0,0,1-.47-.45L518,126.27A2.9,2.9,0,0,1,518.31,125.54Z"/><path d="M528.36,135v.17l0,.16v.09l.11,7.35,0-.1.16,11.48v.13l0,2.28h.05v3.84a4.06,4.06,0,0,0,6.14,3.44L553.2,153l2.71-1.62.07,0,.94-.55.07,0h0l1.8-1.56c.07-.09.14-.17.2-.26l.1-.13.08-.14a7,7,0,0,0,.91-3.38v-.45c0-.14,0-.29,0-.43s0-.56,0-.82l0-1.53V119.46A4.06,4.06,0,0,0,556,115.4h0a4.05,4.05,0,0,0-2,.55l-21.92,12.69-.13.08h0l-.11.06-.67.38-.11.07-.1.07a6.18,6.18,0,0,0-2.58,4.44V135Zm4.17-3.5.67-.38.2-.09,0,0,21.92-12.69a1.34,1.34,0,0,1,.66-.18,1.31,1.31,0,0,1,1.31,1.31v20.2a4.58,4.58,0,0,0-4.13-.61c-3.65,1.22-6.16,5.4-6.16,5.4s-4.53-12.07-15.82-4.86l-.07-4.39s0-.08,0-.2v-1A3.43,3.43,0,0,1,532.53,131.54Z"/><path d="M513.27,51.81a4.72,4.72,0,0,1,2.31.61L572,84.4A6.1,6.1,0,0,1,575,89.6l.75,65.65a4.67,4.67,0,0,1-2.34,4.11L516.68,192a7.85,7.85,0,0,1-3.87,1.2,5.68,5.68,0,0,1-2.95-.86L454,159.21a4.7,4.7,0,0,1-2.3-4l-.14-63c0-3.64.8-4.69,3.93-6.55l55.37-33.15a4.62,4.62,0,0,1,2.38-.66m0-5.23h0a9.88,9.88,0,0,0-5,1.38h0L452.84,81.12a13.5,13.5,0,0,0-4.91,4.34,12.25,12.25,0,0,0-1.58,6.72l.15,63a9.91,9.91,0,0,0,4.86,8.52l55.82,33.12a11,11,0,0,0,5.63,1.58,12.86,12.86,0,0,0,6.48-1.89l56.76-32.63a9.93,9.93,0,0,0,5-8.71l-.76-65.65a11.32,11.32,0,0,0-5.72-9.69l-56.37-32a9.91,9.91,0,0,0-4.9-1.29Z"/><polygon points="119.17 167.5 128.5 167.5 128.38 125.15 183.59 125.15 183.59 116.57 128.38 116.57 128.38 86.07 186.49 86.07 186.49 77.5 119.05 77.5 119.17 167.5"/><path d="M244.59,169.77c25.59,0,48.91-15.5,48.91-47.27s-23.32-47.27-48.91-47.27-48.91,15.5-48.91,47.27S219,169.77,244.59,169.77Zm0-86c19.79,0,38.83,11.47,38.83,38.7s-19,38.7-38.83,38.7-38.83-11.47-38.83-38.7S224.8,83.8,244.59,83.8Z"/><path d="M306.22,122.5c0,31.77,23.32,47.27,48.91,47.27S404,154.27,404,122.5s-23.32-47.27-48.91-47.27S306.22,90.73,306.22,122.5Zm87.74,0c0,27.23-19,38.7-38.83,38.7s-38.83-11.47-38.83-38.7,19-38.7,38.83-38.7S394,95.27,394,122.5Z"/><path d="M676.09,96c13.22,0,18.17,5.66,20.06,12.15H727.9c-3.42-24.31-29.86-30.33-53-30.33C638.44,77.77,622,97.6,622,122.5c0,29.15,16.17,44.73,53,44.73,21.83,0,32.57-7.31,36.35-11.33l3.42,8.74h13.1V116.83H682.58V134.3h17.23c-2.71,9.56-9.91,14.76-23.72,14.76-17.35,0-25-11.81-25-26.44C651.07,107.75,658.74,96,676.09,96Z"/><path d="M772.14,80.36l-36.58,84.28h30.09L770.73,151h36.82l5.08,13.69h30.1L806.49,80.36Zm5.2,53.12L789,101.61h.24l11.68,31.87Z"/><polygon points="850.85 80.36 850.85 164.64 930.29 164.64 930.29 145.04 878.94 145.04 878.94 80.36 850.85 80.36"/><polygon points="943.49 80.36 943.49 164.64 1022.92 164.64 1022.92 145.04 971.58 145.04 971.58 80.36 943.49 80.36"/><polygon points="1120.52 98.54 1120.52 80.36 1036.13 80.36 1036.13 164.64 1120.52 164.64 1120.52 146.46 1064.22 146.46 1064.22 131.24 1116.98 131.24 1116.98 113.77 1064.22 113.77 1064.22 98.54 1120.52 98.54"/><path d="M1217.52,123.33v-.24c7.56-1.89,13.46-7.91,13.46-19.24,0-14-7.44-23.49-28.21-23.49h-67.51v84.28h28.09v-28.1h25.73c7.08,0,11.45,2.37,11.45,15.59,0,3.89.12,8.85,1.65,12.51H1233c-3.54-4.13-4-9.68-5.31-26.2C1226.85,129.35,1222.84,125.1,1217.52,123.33Zm-27.14-5.67h-27V99.25h27c7,0,10.5,3.54,10.5,9.09C1200.88,114.12,1197.34,117.66,1190.38,117.66Z"/><polygon points="1285.49 116.13 1266.61 80.36 1234.03 80.36 1271.45 138.08 1271.45 164.64 1299.54 164.64 1299.54 138.08 1336.95 80.36 1304.38 80.36 1285.49 116.13"/></svg>